<svg xmlns="http://www.w3.org/2000/svg" style="--tile-ink:#133a37;--tile-red:#c32837;--tile-green:#0a6b4f;--tile-blue:#164977;--tile-muted:#44665b" viewBox="0 0 44 62" aria-hidden="true"><text x="3" y="8" font-size="7" fill="var(--tile-muted)" font-family="Arial, 'Malgun Gothic', sans-serif" font-weight="600">7s</text><path d="M22 7v10" stroke="var(--tile-red)" stroke-width="3.4" stroke-linecap="round"/><path d="m19.3 8h5.4m-5.4 4h5.4m-5.4 4h5.4" stroke="var(--tile-red)" stroke-width="1.4" stroke-linecap="round"/><path d="M12 23v10" stroke="var(--tile-green)" stroke-width="3.4" stroke-linecap="round"/><path d="m9.3 24h5.4m-5.4 4h5.4m-5.4 4h5.4" stroke="var(--tile-green)" stroke-width="1.4" stroke-linecap="round"/><path d="M32 23v10" stroke="var(--tile-green)" stroke-width="3.4" stroke-linecap="round"/><path d="m29.3 24h5.4m-5.4 4h5.4m-5.4 4h5.4" stroke="var(--tile-green)" stroke-width="1.4" stroke-linecap="round"/><path d="M12 37v10" stroke="var(--tile-green)" stroke-width="3.4" stroke-linecap="round"/><path d="m9.3 38h5.4m-5.4 4h5.4m-5.4 4h5.4" stroke="var(--tile-green)" stroke-width="1.4" stroke-linecap="round"/><path d="M32 37v10" stroke="var(--tile-green)" stroke-width="3.4" stroke-linecap="round"/><path d="m29.3 38h5.4m-5.4 4h5.4m-5.4 4h5.4" stroke="var(--tile-green)" stroke-width="1.4" stroke-linecap="round"/><path d="M12 49v10" stroke="var(--tile-green)" stroke-width="3.4" stroke-linecap="round"/><path d="m9.3 50h5.4m-5.4 4h5.4m-5.4 4h5.4" stroke="var(--tile-green)" stroke-width="1.4" stroke-linecap="round"/><path d="M32 49v10" stroke="var(--tile-green)" stroke-width="3.4" stroke-linecap="round"/><path d="m29.3 50h5.4m-5.4 4h5.4m-5.4 4h5.4" stroke="var(--tile-green)" stroke-width="1.4" stroke-linecap="round"/></svg>