<svg xmlns="http://www.w3.org/2000/svg" style="--tile-ink:#133a37;--tile-red:#c32837;--tile-green:#0a6b4f;--tile-blue:#164977;--tile-muted:#44665b" viewBox="0 0 44 62" aria-hidden="true"><text x="3" y="8" font-size="7" fill="var(--tile-red)" font-family="Arial, 'Malgun Gothic', sans-serif" font-weight="600">5s</text><path d="M12 12v10" stroke="var(--tile-red)" stroke-width="3.4" stroke-linecap="round"/><path d="m9.3 13h5.4m-5.4 4h5.4m-5.4 4h5.4" stroke="var(--tile-red)" stroke-width="1.4" stroke-linecap="round"/><path d="M32 12v10" stroke="var(--tile-red)" stroke-width="3.4" stroke-linecap="round"/><path d="m29.3 13h5.4m-5.4 4h5.4m-5.4 4h5.4" stroke="var(--tile-red)" stroke-width="1.4" stroke-linecap="round"/><path d="M22 27v10" stroke="var(--tile-red)" stroke-width="3.4" stroke-linecap="round"/><path d="m19.3 28h5.4m-5.4 4h5.4m-5.4 4h5.4" stroke="var(--tile-red)" stroke-width="1.4" stroke-linecap="round"/><path d="M12 43v10" stroke="var(--tile-red)" stroke-width="3.4" stroke-linecap="round"/><path d="m9.3 44h5.4m-5.4 4h5.4m-5.4 4h5.4" stroke="var(--tile-red)" stroke-width="1.4" stroke-linecap="round"/><path d="M32 43v10" stroke="var(--tile-red)" stroke-width="3.4" stroke-linecap="round"/><path d="m29.3 44h5.4m-5.4 4h5.4m-5.4 4h5.4" stroke="var(--tile-red)" stroke-width="1.4" stroke-linecap="round"/><circle cx="38" cy="6" r="1.8" fill="var(--tile-red)"/></svg>